# xmcd
#
# Track frame offsets:
#	150
#	15411
#	27578
#
# Disc length: 514 seconds
#
# Revision: 0
# Processed by: cddbd v1.5.2PL0 Copyright (c) Steve Scherf et al.
# Submitted via: audiograbber 1.83.01
#
DISCID=19020003
DTITLE=Vintage Buzz - Vintage Buzz
DYEAR=1900
DGENRE=
TTITLE0=Chiller Theater Theme (Experiment In Terror)
TTITLE1=Little Sister
TTITLE2=Buzz Buzz Buzz
EXTD=
EXTT0=
EXTT1=
EXTT2=
PLAYORDER=
